<?xml version="1.0" encoding="utf-8"?>
<!-- Generator: Adobe Illustrator 24.3.0, SVG Export Plug-In . SVG Version: 6.00 Build 0)  -->
<svg version="1.1" id="Layer_1" xmlns="http://www.w3.org/2000/svg" xmlns:xlink="http://www.w3.org/1999/xlink" x="0px" y="0px"
	 viewBox="0 0 375 375" style="enable-background:new 0 0 375 375;" xml:space="preserve">
<style type="text/css">
	.st0{fill:url(#SVGID_1_);}
	.st1{fill:url(#SVGID_2_);}
	.st2{fill:url(#SVGID_3_);}
	.st3{fill:url(#SVGID_4_);}
	.st4{fill:url(#SVGID_5_);}
	.st5{fill:url(#SVGID_6_);}
	.st6{fill:url(#SVGID_7_);}
	.st7{fill:url(#SVGID_8_);}
	.st8{fill:#D4B658;}
	.st9{font-family:'BellMTBold';}
	.st10{font-size:14.661px;}
	.st11{fill:#FFFFFF;}
	.st12{font-family:'BellMT';}
	.st13{font-size:4.312px;}
	.st14{fill:url(#SVGID_9_);}
	.st15{fill:url(#SVGID_10_);}
</style>
<g>
	<g>
		<linearGradient id="SVGID_1_" gradientUnits="userSpaceOnUse" x1="104.1029" y1="112.3783" x2="152.0427" y2="82.5491">
			<stop  offset="0" style="stop-color:#816638"/>
			<stop  offset="1" style="stop-color:#CDAF4C"/>
		</linearGradient>
		<path class="st0" d="M126.8,99.6c0,0,7.9-5.4,11.8-6.4c0,0.1-2.4-2.1-4.2-2C134.3,91.3,128.4,93.9,126.8,99.6z"/>
		<linearGradient id="SVGID_2_" gradientUnits="userSpaceOnUse" x1="106.4577" y1="116.1629" x2="154.3975" y2="86.3337">
			<stop  offset="0" style="stop-color:#816638"/>
			<stop  offset="1" style="stop-color:#CDAF4C"/>
		</linearGradient>
		<path class="st1" d="M144.7,95.1c0,0-12.2,3.2-20.6,9.9c-0.1,0-0.1,0-0.1-0.1c0.8-1.1,4-5.2,8.7-7.7c0,0,7.7-4.1,9.2-3.9
			C144.9,93.9,144.7,95.1,144.7,95.1z"/>
		<linearGradient id="SVGID_3_" gradientUnits="userSpaceOnUse" x1="108.1834" y1="118.9364" x2="156.1233" y2="89.1072">
			<stop  offset="0" style="stop-color:#816638"/>
			<stop  offset="1" style="stop-color:#CDAF4C"/>
		</linearGradient>
		<path class="st2" d="M150.7,96.2c0,0.3-15.1,0.3-33.1,15.5c0.1,0.1,4.9-6,12.4-10.1c0.1,0,5.3-2.6,5.3-2.6s7.6-3.3,12.2-3.8
			C147.7,95.2,150.7,95.2,150.7,96.2z"/>
		<linearGradient id="SVGID_4_" gradientUnits="userSpaceOnUse" x1="109.7964" y1="121.5286" x2="157.7362" y2="91.6994">
			<stop  offset="0" style="stop-color:#816638"/>
			<stop  offset="1" style="stop-color:#CDAF4C"/>
		</linearGradient>
		<path class="st3" d="M155.3,98.5c0,0-20.7,0.6-37.6,14c0,0.1,13.1-13.1,34.6-15.4C152.3,97.1,154.2,96.8,155.3,98.5z"/>
		<linearGradient id="SVGID_5_" gradientUnits="userSpaceOnUse" x1="117.8949" y1="134.5441" x2="165.8347" y2="104.7149">
			<stop  offset="0" style="stop-color:#816638"/>
			<stop  offset="1" style="stop-color:#CDAF4C"/>
		</linearGradient>
		<path class="st4" d="M162.1,124.9c0,0-4.1,1-4.4,1.1c-0.3,0.2-12.9-5.9-21.6-6.2c0,0-17.6-1.2-26.8,2.1c0,0,8.4-3.8,20.9-4
			C130.3,118.1,153.4,117.7,162.1,124.9z"/>
		<linearGradient id="SVGID_6_" gradientUnits="userSpaceOnUse" x1="117.4989" y1="133.9077" x2="165.4388" y2="104.0785">
			<stop  offset="0" style="stop-color:#816638"/>
			<stop  offset="1" style="stop-color:#CDAF4C"/>
		</linearGradient>
		<path class="st5" d="M171.4,118.3c0,0,1.3-0.7,0.5-3.9c0,0-0.8-5,2-9.1c0,0.1,0.9-1.1-1.3-0.9c0,0-10.1,0-13.5,0.4c0,0,0,0,0,0
			c0,0-0.1,0-0.1,0c-0.1,0-0.1,0-0.2,0c-0.1,0-0.2,0-0.3,0c-0.1,0-0.2,0-0.3,0c-0.1,0-0.3,0-0.4,0c-0.2,0-0.3,0-0.5,0.1
			c-0.2,0-0.3,0-0.5,0.1c-0.2,0-0.4,0-0.6,0.1c-0.2,0-0.4,0.1-0.6,0.1c-0.2,0-0.5,0.1-0.7,0.1c-0.2,0-0.5,0.1-0.7,0.1
			c-0.3,0-0.5,0.1-0.8,0.1c-0.3,0-0.6,0.1-0.8,0.1c-0.3,0-0.6,0.1-0.9,0.1c-0.3,0-0.6,0.1-0.9,0.1c-0.3,0.1-0.6,0.1-1,0.2
			c-0.3,0.1-0.7,0.1-1,0.2c-0.3,0.1-0.7,0.1-1,0.2c-0.4,0.1-0.7,0.1-1.1,0.2c-0.4,0.1-0.7,0.1-1.1,0.2c-0.4,0.1-0.7,0.1-1.1,0.2
			c-0.4,0.1-0.8,0.2-1.1,0.2c-0.4,0.1-0.8,0.2-1.2,0.2c-0.4,0.1-0.8,0.2-1.2,0.3c-0.4,0.1-0.8,0.2-1.2,0.3c-0.4,0.1-0.8,0.2-1.2,0.3
			c-0.4,0.1-0.8,0.2-1.2,0.3c-0.4,0.1-0.8,0.2-1.2,0.3c-0.4,0.1-0.8,0.2-1.2,0.3c-0.4,0.1-0.8,0.2-1.2,0.4c-0.4,0.1-0.8,0.2-1.2,0.4
			c-0.4,0.1-0.8,0.3-1.2,0.4c-0.4,0.1-0.8,0.3-1.2,0.4c-0.4,0.1-0.8,0.3-1.2,0.4c-0.4,0.1-0.8,0.3-1.2,0.4c-0.4,0.1-0.8,0.3-1.2,0.5
			c-0.4,0.2-0.8,0.3-1.2,0.5c-0.4,0.2-0.8,0.3-1.2,0.5c-0.4,0.2-0.8,0.3-1.1,0.5c-0.4,0.2-0.7,0.4-1.1,0.5c-0.4,0.2-0.7,0.4-1.1,0.6
			c-0.2,0.1-0.3,0.2-0.5,0.3c-0.1,0.1-0.2,0.1-0.3,0.2c-0.1,0-0.1,0.1-0.2,0.1c-0.1,0-0.2,0-0.3,0c-0.2,0-0.4-0.1-0.5-0.3
			c0-0.1,0-0.3,0-0.4c0-0.1,0-0.2,0.1-0.2c0-0.1,0.1-0.1,0.2-0.1c0.1,0,0.2-0.1,0.3-0.1c0.1-0.1,0.2-0.1,0.3-0.2
			c0.1-0.1,0.3-0.1,0.4-0.2c0.2-0.1,0.3-0.2,0.5-0.2c0.2-0.1,0.4-0.2,0.6-0.3c0.2-0.1,0.4-0.2,0.7-0.3c0.2-0.1,0.5-0.2,0.7-0.3
			c0.3-0.1,0.5-0.2,0.8-0.3c0.3-0.1,0.6-0.2,0.8-0.4c0.3-0.1,0.6-0.3,0.9-0.4c0.3-0.1,0.6-0.3,0.9-0.4c0.3-0.1,0.6-0.3,1-0.4
			c0.3-0.1,0.7-0.3,1-0.4c0.3-0.1,0.7-0.3,1-0.4c0.3-0.1,0.7-0.3,1-0.4c0.4-0.1,0.7-0.3,1.1-0.4c0.4-0.1,0.7-0.3,1.1-0.4
			c0.4-0.1,0.7-0.3,1.1-0.4c0.4-0.1,0.7-0.3,1.1-0.4c0.4-0.1,0.7-0.2,1.1-0.4c0.4-0.1,0.7-0.2,1.1-0.3c0.3-0.1,0.7-0.2,1-0.3
			c0.3-0.1,0.7-0.2,1-0.3c0.3-0.1,0.7-0.2,1-0.3c0.3-0.1,0.6-0.2,1-0.2c0.3-0.1,0.6-0.1,0.9-0.2c0.3-0.1,0.6-0.1,0.9-0.2
			c0.1,0,0.2,0,0.4-0.1c0.1,0,0.1,0,0.2,0c0,0,0.1,0,0.2,0c0.1,0,16.6-4.6,37.8-3.3c0,0-1.9,0.7-5.1,4.8c-0.2,0.4-1.4,2.4-1.6,5.2
			c0,0.6,0,1.3,0,1.9c0,0.5,0,1,0,1.4c0,0.2,0,0.4-0.1,0.6c-0.1,0.2-0.2,0.3-0.3,0.5c-0.3,0.4-0.7,0.9-1.2,1.1
			C172.3,118.3,171.9,118.4,171.4,118.3z"/>
		<linearGradient id="SVGID_7_" gradientUnits="userSpaceOnUse" x1="118.7679" y1="135.9472" x2="166.7077" y2="106.118">
			<stop  offset="0" style="stop-color:#816638"/>
			<stop  offset="1" style="stop-color:#CDAF4C"/>
		</linearGradient>
		<path class="st6" d="M172.7,122.4c0,0-3.5,0.8-4.6,0.9c0,0-13-6-20.1-6.4c0,0-15.8-2.4-26,0.9c0-0.1-11.6,3.1-12.2,3.9
			c0,0,5.7-3.6,14.1-5.4c0,0,10.1-2.8,20.9-1.7C144.7,114.6,163.1,115.4,172.7,122.4z"/>
		<linearGradient id="SVGID_8_" gradientUnits="userSpaceOnUse" x1="111.4722" y1="124.2219" x2="159.412" y2="94.3927">
			<stop  offset="0" style="stop-color:#816638"/>
			<stop  offset="1" style="stop-color:#CDAF4C"/>
		</linearGradient>
		<path class="st7" d="M157.7,99.4c-4-0.9-17.5,2.5-17.4,2.5c-11.5,2.9-22,10.7-22,10.7c-0.8,0.7,0,1,0.1,0.9
			c18.7-10.1,41.7-12.1,41.7-12.1C159.8,100.5,157.7,99.5,157.7,99.4z M122.3,111.4l-0.2,0.1c-0.2,0.1-0.4,0-0.5-0.1l-0.1-0.2
			c-0.1-0.2,0-0.4,0.1-0.5l0.2-0.1c0.2-0.1,0.4,0,0.5,0.1l0.1,0.2C122.5,111.1,122.5,111.3,122.3,111.4z M125,110.2l-0.3,0.1
			c-0.2,0.1-0.5,0-0.7-0.2l-0.1-0.3c-0.1-0.2,0-0.5,0.2-0.7l0.3-0.1c0.2-0.1,0.5,0,0.7,0.2l0.1,0.3
			C125.3,109.8,125.2,110.1,125,110.2z M127.9,108.8l-0.4,0.2c-0.2,0.1-0.5,0-0.7-0.2l-0.2-0.4c-0.1-0.2,0-0.5,0.2-0.7l0.4-0.2
			c0.2-0.1,0.5,0,0.7,0.2l0.2,0.4C128.3,108.4,128.2,108.7,127.9,108.8z M131.2,107.5l-0.6,0.2c-0.2,0.1-0.5,0-0.6-0.3l-0.2-0.6
			c-0.1-0.2,0-0.5,0.3-0.6l0.6-0.2c0.2-0.1,0.5,0,0.6,0.3l0.2,0.6C131.5,107.1,131.4,107.4,131.2,107.5z M134.9,106.1l-0.6,0.2
			c-0.3,0.1-0.5,0-0.6-0.3l-0.2-0.6c-0.1-0.3,0-0.5,0.3-0.6l0.6-0.2c0.3-0.1,0.5,0,0.6,0.3l0.2,0.6
			C135.2,105.8,135.1,106,134.9,106.1z M138.5,104.9l-0.6,0.2c-0.3,0.1-0.5,0-0.6-0.3l-0.2-0.6c-0.1-0.3,0-0.5,0.3-0.6l0.6-0.2
			c0.3-0.1,0.5,0,0.6,0.3l0.2,0.6C138.8,104.5,138.7,104.8,138.5,104.9z M142.2,103.9l-0.6,0.1c-0.3,0.1-0.5-0.1-0.6-0.4l-0.1-0.6
			c-0.1-0.3,0.1-0.5,0.4-0.6l0.6-0.1c0.3-0.1,0.5,0.1,0.6,0.4l0.1,0.6C142.6,103.5,142.5,103.8,142.2,103.9z M146,102.9l-0.6,0.1
			c-0.3,0.1-0.5-0.1-0.6-0.4l-0.1-0.6c-0.1-0.3,0.1-0.5,0.4-0.6l0.6-0.1c0.3-0.1,0.5,0.1,0.6,0.4l0.1,0.6
			C146.5,102.6,146.3,102.8,146,102.9z M149.7,102.2l-0.6,0.1c-0.3,0-0.5-0.1-0.6-0.4l-0.1-0.6c0-0.3,0.1-0.5,0.4-0.6l0.6-0.1
			c0.3,0,0.5,0.1,0.6,0.4l0.1,0.6C150.1,101.9,150,102.2,149.7,102.2z M153.8,101.6l-0.6,0.1c-0.3,0-0.5-0.1-0.6-0.4l-0.1-0.6
			c0-0.3,0.1-0.5,0.4-0.6l0.6-0.1c0.3,0,0.5,0.1,0.6,0.4l0.1,0.6C154.2,101.3,154,101.6,153.8,101.6z"/>
	</g>
	<text transform="matrix(1 0 0 1 79.0693 149.6163)" class="st8 st9 st10">LAKHANI IMPEX</text>
	<text transform="matrix(1 0 0 1 109.2012 161.5508)" class="st11 st12 st13">THE IMPORTERS &amp; EXPORTERS</text>
	<g>
		<linearGradient id="SVGID_9_" gradientUnits="userSpaceOnUse" x1="88.5201" y1="153.8777" x2="199.7107" y2="153.8777">
			<stop  offset="0" style="stop-color:#816638"/>
			<stop  offset="1" style="stop-color:#CDAF4C"/>
		</linearGradient>
		<path class="st14" d="M88.5,153.9c9.3-0.2,18.5-0.3,27.8-0.4l27.8-0.1l27.8,0.1l13.9,0.1l13.9,0.2l-13.9,0.2l-13.9,0.1l-27.8,0.1
			l-27.8-0.1C107.1,154.2,97.8,154.1,88.5,153.9z"/>
	</g>
	<g>
		<linearGradient id="SVGID_10_" gradientUnits="userSpaceOnUse" x1="88.5201" y1="135.4627" x2="199.7107" y2="135.4627">
			<stop  offset="0" style="stop-color:#816638"/>
			<stop  offset="1" style="stop-color:#CDAF4C"/>
		</linearGradient>
		<path class="st15" d="M88.5,135.5c9.3-0.2,18.5-0.3,27.8-0.4l27.8-0.1l27.8,0.1l13.9,0.1l13.9,0.2l-13.9,0.2l-13.9,0.1l-27.8,0.1
			l-27.8-0.1C107.1,135.8,97.8,135.7,88.5,135.5z"/>
	</g>
</g>
</svg>
