<svg width="76" height="76" viewBox="0 0 76 76" fill="none" xmlns="http://www.w3.org/2000/svg">
<g clip-path="url(#clip0_23_91)">
<path d="M6.33333 34.2H8.86667V44.3333H6.33333V34.2ZM12.6667 34.2H15.2V44.3333H12.6667V34.2ZM19 34.2H21.5333V44.3333H19V34.2ZM25.3333 34.2H27.8667V44.3333H25.3333V34.2ZM31.6667 34.2H34.2V44.3333H31.6667V34.2ZM39.2673 55.7333H1.26667C1.10037 55.7332 0.935688 55.766 0.782032 55.8296C0.628375 55.8932 0.48875 55.9864 0.371129 56.104C0.253508 56.2215 0.160195 56.3611 0.0965164 56.5147C0.0328379 56.6684 4.16197e-05 56.833 3.96068e-08 56.9993V74.7333C-4.15509e-05 74.8996 0.0326724 75.0643 0.096274 75.2179C0.159876 75.3716 0.253119 75.5112 0.370681 75.6288C0.488244 75.7464 0.627822 75.8398 0.781446 75.9034C0.935071 75.9671 1.09973 75.9999 1.26603 76H39.2667C39.433 76 39.5976 75.9673 39.7513 75.9037C39.905 75.8401 40.0446 75.7468 40.1622 75.6293C40.2798 75.5117 40.3731 75.3721 40.4368 75.2185C40.5005 75.0649 40.5333 74.9002 40.5333 74.7339V57C40.5334 56.8337 40.5007 56.669 40.4371 56.5153C40.3735 56.3617 40.2802 56.222 40.1627 56.1044C40.0451 55.9868 39.9055 55.8935 39.7519 55.8298C39.5983 55.7661 39.4336 55.7333 39.2673 55.7333ZM38 73.4666H2.53333V58.2666H38V73.4666Z" fill="white"/>
<path d="M6.33331 60.8H8.86665V70.9334H6.33331V60.8ZM12.6666 60.8H15.2V70.9334H12.6666V60.8ZM19 60.8H21.5333V70.9334H19V60.8ZM25.3333 60.8H27.8666V70.9334H25.3333V60.8ZM31.6666 60.8H34.2V70.9334H31.6666V60.8Z" fill="white"/>
<path d="M74.734 32.9333H69.6667V11.6842C72.4573 9.59231 73.0237 5.63429 70.9317 2.84367C68.8399 0.0530415 64.8818 -0.513317 62.0912 1.57858C61.3649 2.123 60.7645 2.81759 60.331 3.61502C59.8974 4.41245 59.6408 5.29399 59.5788 6.19954L25.3333 2.65699V1.26667C25.3334 1.10037 25.3007 0.935688 25.2371 0.782031C25.1735 0.628375 25.0802 0.48875 24.9627 0.371129C24.8451 0.253508 24.7055 0.160195 24.5519 0.0965164C24.3983 0.0328379 24.2336 4.16197e-05 24.0673 3.96068e-08H16.4667C16.3004 -4.15509e-05 16.1357 0.0326724 15.982 0.096274C15.8284 0.159876 15.6887 0.253119 15.5711 0.370681C15.4535 0.488244 15.3602 0.627822 15.2965 0.781446C15.2328 0.935071 15.2 1.09973 15.2 1.26603V7.6C15.2 7.7663 15.2327 7.93098 15.2963 8.08464C15.3599 8.23829 15.4531 8.37792 15.5707 8.49554C15.6882 8.61316 15.8278 8.70647 15.9814 8.77015C16.1351 8.83383 16.2997 8.86662 16.466 8.86667H19V12.6667C19 12.833 19.0327 12.9976 19.0963 13.1513C19.1599 13.305 19.2531 13.4446 19.3707 13.5622C19.4882 13.6798 19.6278 13.7731 19.7814 13.8368C19.9351 13.9005 20.0997 13.9333 20.266 13.9333H20.9C22.649 13.9333 24.0667 15.351 24.0667 17.1C24.0667 18.8489 22.649 20.2667 20.9 20.2667C19.1511 20.2667 17.7333 18.8489 17.7333 17.1H15.2C15.203 17.9601 15.4016 18.8083 15.7809 19.5803C16.1601 20.3523 16.71 21.0279 17.389 21.556L2.23393 29.1333H1.26667C1.10037 29.1333 0.935688 29.166 0.782031 29.2296C0.628375 29.2932 0.48875 29.3865 0.371129 29.504C0.253508 29.6216 0.160195 29.7612 0.0965164 29.9148C0.0328379 30.0684 4.16197e-05 30.2331 3.96068e-08 30.3994V48.1333C-4.15509e-05 48.2996 0.0326724 48.4643 0.096274 48.618C0.159876 48.7716 0.253119 48.9113 0.370681 49.0289C0.488244 49.1465 0.627822 49.2398 0.781446 49.3035C0.935071 49.3672 1.09973 49.4 1.26603 49.4H39.2667C39.433 49.4 39.5976 49.3673 39.7513 49.3037C39.905 49.2401 40.0446 49.1469 40.1622 49.0293C40.2798 48.9118 40.3731 48.7722 40.4368 48.6186C40.5005 48.4649 40.5333 48.3003 40.5333 48.134V30.4C40.5334 30.2337 40.5007 30.069 40.4371 29.9154C40.3735 29.7617 40.2802 29.6221 40.1627 29.5045C40.0451 29.3868 39.9055 29.2935 39.7519 29.2298C39.5983 29.1662 39.4336 29.1334 39.2673 29.1333H37.0536L23.7845 21.9884C26.4939 20.4055 27.407 16.9261 25.8242 14.2168C25.3762 13.4499 24.7546 12.7988 24.0095 12.3156C23.2643 11.8324 22.4162 11.5307 21.5333 11.4345V8.86667H24.0667C24.233 8.86671 24.3976 8.83399 24.5513 8.77039C24.705 8.70679 24.8446 8.61355 24.9622 8.49599C25.0798 8.37842 25.1731 8.23884 25.2368 8.08522C25.3005 7.9316 25.3333 7.76693 25.3333 7.60063V5.20505L59.9296 8.78402C60.3459 9.93746 61.0883 10.9451 62.0667 11.6844V32.9333H50.6667C50.5004 32.9333 50.3357 32.966 50.182 33.0296C50.0284 33.0932 49.8887 33.1865 49.7711 33.304C49.6535 33.4216 49.5602 33.5612 49.4965 33.7148C49.4328 33.8684 49.4 34.0331 49.4 34.1994V51.9333H46.8667C46.7004 51.9333 46.5357 51.966 46.382 52.0296C46.2284 52.0932 46.0887 52.1865 45.9711 52.304C45.8535 52.4216 45.7602 52.5612 45.6965 52.7148C45.6328 52.8684 45.6 53.0331 45.6 53.1994V74.7333C45.6 74.8996 45.6327 75.0643 45.6963 75.218C45.7599 75.3716 45.8531 75.5113 45.9707 75.6289C46.0882 75.7465 46.2278 75.8398 46.3814 75.9035C46.5351 75.9672 46.6997 76 46.866 76H74.7333C74.8996 76 75.0643 75.9673 75.218 75.9037C75.3716 75.8401 75.5113 75.7469 75.6289 75.6293C75.7465 75.5118 75.8398 75.3722 75.9035 75.2186C75.9672 75.0649 76 74.9003 76 74.734V34.2C76 34.0337 75.9673 33.869 75.9037 33.7154C75.8401 33.5617 75.7469 33.4221 75.6293 33.3045C75.5118 33.1868 75.3722 33.0935 75.2186 33.0299C75.0649 32.9662 74.9003 32.9334 74.734 32.9333ZM38 31.6667V46.8667H2.53333V31.6667H38ZM31.7083 29.1333H7.89957L20.2451 22.9609L31.7083 29.1333ZM22.8 6.33333H17.7333V2.53333H22.8V6.33333ZM65.8667 2.85C67.9654 2.85 69.6667 4.55129 69.6667 6.65C69.6667 8.74871 67.9654 10.45 65.8667 10.45C63.768 10.45 62.0667 8.74871 62.0667 6.65C62.0689 4.55224 63.7689 2.85222 65.8667 2.85ZM68.4 40.7047L72.6193 44.2208L68.4 47.0334V40.7047ZM72.6193 55.6208L68.4 58.4334V52.1048L72.6193 55.6208ZM72.6193 67.0208L68.4 69.8334V63.5048L72.6193 67.0208ZM65.8667 73.4667H48.1333V54.4667H65.8667V73.4667ZM65.8667 51.9333H51.9333V35.4667H65.8667V51.9333ZM67.1333 32.9333H64.6V12.8552C65.4358 13.0259 66.2975 13.0259 67.1333 12.8552V32.9333ZM73.4667 73.4667H68.4V72.8778L73.4667 69.5001V73.4667ZM73.4667 64.4285L69.2474 60.9124L73.4667 58.0999V64.4285ZM73.4667 53.0285L69.2474 49.5124L73.4667 46.6999V53.0285ZM73.4667 41.6285L68.4 37.4062V35.4667H73.4667V41.6285Z" fill="white"/>
<path d="M65.8667 4.75C64.8174 4.75 63.9667 5.60073 63.9667 6.65C63.9678 7.6988 64.8179 8.54889 65.8667 8.55C66.916 8.55 67.7667 7.69928 67.7667 6.65C67.7667 5.60073 66.916 4.75 65.8667 4.75ZM65.8667 7.28333C65.6987 7.28333 65.5376 7.21661 65.4188 7.09783C65.3001 6.97906 65.2333 6.81797 65.2333 6.65C65.2333 6.48203 65.3001 6.32094 65.4188 6.20217C65.5376 6.08339 65.6987 6.01667 65.8667 6.01667C66.0346 6.01667 66.1957 6.08339 66.3145 6.20217C66.4333 6.32094 66.5 6.48203 66.5 6.65C66.5 6.81797 66.4333 6.97906 66.3145 7.09783C66.1957 7.21661 66.0346 7.28333 65.8667 7.28333Z" fill="white"/>
</g>
<defs>
<clipPath id="clip0_23_91">
<rect width="76" height="76" fill="white"/>
</clipPath>
</defs>
</svg>
