<svg width="76" height="76" viewBox="0 0 76 76" fill="none" xmlns="http://www.w3.org/2000/svg">
<path fill-rule="evenodd" clip-rule="evenodd" d="M7.15597 36.2934C6.64952 37.0685 5.44965 37.1099 4.93936 36.1591L1.72182 30.6371C1.55542 30.3448 1.51132 29.9986 1.59912 29.674C1.68692 29.3493 1.89951 29.0725 2.19053 28.904C2.48156 28.7354 2.82742 28.6887 3.15272 28.7741C3.47802 28.8595 3.75637 29.07 3.92709 29.3598L5.06438 31.3117C7.19222 13.5746 22.2934 0 40.4042 0C60.063 0 76 15.937 76 35.5958C76 45.1351 72.204 54.1358 65.5743 60.7657C65.4562 60.8865 65.3153 60.9826 65.1597 61.0486C65.0042 61.1145 64.8371 61.149 64.6682 61.1499C64.4992 61.1509 64.3318 61.1183 64.1755 61.0541C64.0193 60.9899 63.8773 60.8953 63.7578 60.7758C63.6384 60.6564 63.5438 60.5144 63.4796 60.3581C63.4154 60.2019 63.3828 60.0344 63.3837 59.8655C63.3847 59.6966 63.4191 59.5295 63.4851 59.3739C63.551 59.2184 63.6472 59.0775 63.768 58.9594C76.6559 46.0716 76.696 25.1601 63.768 12.2322C50.8648 -0.671067 29.9438 -0.671067 17.0406 12.2322C11.9492 17.3235 8.51248 24.069 7.60383 31.5933L9.07513 29.7146C9.17801 29.5829 9.30582 29.4727 9.45127 29.3904C9.59672 29.3081 9.75695 29.2552 9.92283 29.2348C10.0887 29.2144 10.257 29.2269 10.418 29.2716C10.5791 29.3162 10.7297 29.3921 10.8615 29.495C10.9932 29.5979 11.1033 29.7257 11.1856 29.8712C11.2679 30.0166 11.3208 30.1768 11.3412 30.3427C11.3616 30.5086 11.3491 30.6769 11.3044 30.8379C11.2598 30.999 11.1839 31.1496 11.081 31.2813L7.15597 36.2934ZM42.1383 68.6306C43.7442 67.0247 46.4992 68.1691 46.4992 70.4368C46.4992 72.7044 43.7442 73.8488 42.1383 72.2431C41.1404 71.2454 41.1406 69.6285 42.1383 68.6306ZM10.9296 68.6306C12.5355 67.0247 15.2905 68.1691 15.2905 70.4368C15.2905 72.7044 12.5355 73.8488 10.9296 72.2431C9.93189 71.2454 9.93205 69.6285 10.9296 68.6306ZM34.8016 61.2162H20.3476C20.0136 61.211 19.6951 61.0746 19.4608 60.8365C19.2265 60.5985 19.0952 60.2779 19.0952 59.9439C19.0952 59.6099 19.2265 59.2893 19.4608 59.0512C19.6951 58.8132 20.0136 58.6768 20.3476 58.6715H34.8016V42.1564H23.7449V50.9714C23.7449 52.0884 22.3531 52.7424 21.4911 51.7946L18.6781 48.9232L15.7968 51.8646C14.9987 52.6777 13.6152 52.1034 13.6152 50.9714H13.6115V42.1564H2.55462V69.1595H7.32027C8.30875 64.953 13.5767 63.4102 16.6697 66.5032C17.4012 67.2335 17.9145 68.1534 18.1517 69.1595H34.8016V64.9549H28.2132C27.8793 64.9496 27.5608 64.8133 27.3265 64.5752C27.0922 64.3372 26.9609 64.0166 26.9609 63.6826C26.9609 63.3486 27.0922 63.028 27.3265 62.7899C27.5608 62.5519 27.8793 62.4155 28.2132 62.4102H34.8016V61.2162ZM16.166 42.1564V47.8476L17.785 46.1952C17.9042 46.0779 18.0454 45.9853 18.2004 45.9226C18.3555 45.8599 18.5214 45.8283 18.6887 45.8297C18.8559 45.8311 19.0212 45.8654 19.1752 45.9307C19.3292 45.996 19.4688 46.091 19.5861 46.2102L21.1903 47.8477V42.1564H16.166ZM40.3279 58.6666H46.1577L43.852 54.0524H40.3279V58.6666ZM48.2178 61.221C49.1195 61.221 49.857 60.2597 49.3026 59.2693L45.7729 52.2062C45.6673 51.995 45.5049 51.8173 45.304 51.6931C45.1031 51.5689 44.8715 51.5031 44.6353 51.5031V51.4978H39.0506C38.7118 51.4978 38.3869 51.6324 38.1474 51.8719C37.9079 52.1115 37.7733 52.4364 37.7733 52.7751V59.9439C37.7733 60.2826 37.9079 60.6075 38.1474 60.8471C38.3869 61.0866 38.7118 61.2212 39.0506 61.2212L48.2178 61.221ZM43.9446 67.4283C41.2691 67.4283 39.9299 70.677 41.8171 72.5644C43.7072 74.4543 46.9532 73.1096 46.9532 70.4368C46.9532 68.775 45.6062 67.4283 43.9446 67.4283ZM40.011 66.5032C43.1035 63.4105 48.3716 64.9525 49.3602 69.1595H50.7128V60.5929L45.7828 50.7281H37.3561V69.1595H38.5286C38.766 68.1534 39.2794 67.2335 40.011 66.5032ZM49.3602 71.7141H51.9901C52.3288 71.7141 52.6537 71.5796 52.8933 71.34C53.1328 71.1005 53.2674 70.7756 53.2674 70.4368V61.1045C62.59 56.3125 68.582 46.6986 68.582 36.0337C68.582 20.4718 55.9662 7.85594 40.4042 7.85594C23.4549 7.85594 10.3235 22.7079 12.4555 39.6017H1.27731C0.938547 39.6017 0.613658 39.7363 0.374116 39.9759C0.134573 40.2154 0 40.5403 0 40.8791V70.4368C0 70.7756 0.134573 71.1005 0.374116 71.34C0.613658 71.5796 0.938547 71.7141 1.27731 71.7141H7.32027C7.55749 72.7202 8.07073 73.6402 8.80227 74.3705C11.8951 77.4633 17.1631 75.921 18.1517 71.7141H38.5288C38.766 72.7202 39.2793 73.6402 40.0108 74.3705C43.1037 77.4633 48.3716 75.921 49.3602 71.7141ZM12.7361 67.4283C10.0606 67.4283 8.72132 70.677 10.6085 72.5644C12.4986 74.4543 15.7446 73.1096 15.7446 70.4368C15.7446 68.775 14.3978 67.4283 12.7361 67.4283ZM37.3562 48.1735H39.1271V37.311H26.7819L26.8967 39.6017H36.0789C36.4177 39.6017 36.7426 39.7363 36.9821 39.9759C37.2217 40.2154 37.3562 40.5403 37.3562 40.8791V48.1735ZM41.6815 48.1735L46.5664 48.1787C46.8027 48.1788 47.0342 48.2446 47.2352 48.3688C47.4361 48.493 47.5985 48.6707 47.7041 48.882L48.4345 50.3438C49.472 50.4836 50.4935 50.6519 51.4943 50.8469C53.0791 46.7017 53.9004 41.9972 54.025 37.311H41.6817L41.6815 48.1735ZM49.8297 53.1357L50.1699 53.8163C50.2679 53.6271 50.3636 53.4367 50.457 53.2452C50.2481 53.2073 50.039 53.1708 49.8297 53.1357ZM51.5449 56.5676L52.561 58.6011C60.4036 54.3667 65.5542 46.3368 65.9961 37.311H56.5802C56.4568 42.1909 55.6184 47.0697 54.0097 51.4052C54.771 51.5958 55.5268 51.8075 56.2764 52.04C56.4363 52.0892 56.5849 52.1693 56.7138 52.2759C56.8427 52.3825 56.9494 52.5134 57.0277 52.6613C57.106 52.8091 57.1544 52.9708 57.1701 53.1373C57.1859 53.3039 57.1687 53.4719 57.1196 53.6317C57.0704 53.7916 56.9903 53.9402 56.8837 54.0691C56.7771 54.198 56.6462 54.3047 56.4984 54.383C56.3506 54.4613 56.1888 54.5097 56.0223 54.5255C55.8558 54.5412 55.6878 54.5241 55.5279 54.4749C54.6999 54.2184 53.8638 53.9886 53.021 53.7858C52.565 54.7706 52.0718 55.7002 51.5449 56.5676ZM15.0223 39.6017H24.3425L24.2301 37.311H21.0477C20.7089 37.311 20.384 37.1765 20.1445 36.9369C19.905 36.6974 19.7704 36.3725 19.7704 36.0337C19.7704 35.695 19.905 35.3701 20.1445 35.1305C20.384 34.891 20.7089 34.7564 21.0477 34.7564H24.2284C24.3601 29.571 25.289 24.7453 26.801 20.6648C24.8312 20.1705 23.0071 19.5711 21.3669 18.8836C16.3905 24.4043 13.9559 31.959 15.0223 39.6017ZM41.6815 10.526V19.6838C44.6955 19.6213 47.6277 19.3404 50.4587 18.8245C48.3834 14.5744 45.3383 11.1868 41.6815 10.526ZM41.6815 22.2386V34.7564H54.0248C53.8918 29.7289 52.9771 25.0875 51.4973 21.222C48.3362 21.8366 45.0084 22.1708 41.6815 22.2386ZM39.1271 34.7564V22.2388C35.6772 22.1687 32.3714 21.8163 29.3111 21.2222C27.8313 25.0877 26.9168 29.7291 26.7836 34.7564H39.1271ZM39.1271 19.6838V10.526C35.4703 11.1868 32.4242 14.5757 30.3497 18.8247C33.0643 19.3195 36.0198 19.6192 39.1271 19.6838ZM56.5801 34.7564H65.9959C65.477 24.187 58.516 15.1516 48.7238 11.7918C50.4715 13.5995 51.8971 15.8538 53.0202 18.2839C53.8633 18.0813 54.6996 17.8514 55.5277 17.5946C55.849 17.501 56.1942 17.5375 56.4887 17.6963C56.7833 17.8551 57.0035 18.1234 57.1018 18.4432C57.2001 18.7631 57.1687 19.1088 57.0142 19.4056C56.8597 19.7024 56.5946 19.9265 56.2762 20.0295C55.526 20.2622 54.7694 20.4741 54.0074 20.6648C55.5196 24.7452 56.4485 29.571 56.5801 34.7564ZM23.3315 16.9266C24.6968 17.443 26.1897 17.8986 27.7881 18.2842C28.9113 15.854 30.3368 13.5997 32.0846 11.7918C28.8188 12.9123 25.851 14.6739 23.3315 16.9266Z" fill="white"/>
</svg>
