<?xml version="1.0" encoding="utf-8"?>
<!-- Generator: Adobe Illustrator 24.3.0, SVG Export Plug-In . SVG Version: 6.00 Build 0)  -->
<svg version="1.1" id="Layer_1" xmlns="http://www.w3.org/2000/svg" xmlns:xlink="http://www.w3.org/1999/xlink" x="0px" y="0px"
	 viewBox="0 0 256 256" style="enable-background:new 0 0 256 256;" xml:space="preserve">
<style type="text/css">
	.st0{fill:url(#SVGID_1_);}
	.st1{fill:url(#SVGID_2_);}
	.st2{fill:url(#SVGID_3_);}
	.st3{fill:url(#SVGID_4_);}
	.st4{fill:url(#SVGID_5_);}
	.st5{fill:url(#SVGID_6_);}
	.st6{fill:url(#SVGID_7_);}
	.st7{fill:url(#SVGID_8_);}
	.st8{fill:#D4B658;}
	.st9{font-family:'BellMTBold';}
	.st10{font-size:28.2134px;}
	.st11{letter-spacing:1;}
	.st12{fill:#FFFFFF;}
	.st13{font-family:'BellMT';}
	.st14{font-size:13px;}
	.st15{fill:url(#SVGID_9_);}
	.st16{fill:url(#SVGID_10_);}
</style>
<g>
	<g>
		<linearGradient id="SVGID_1_" gradientUnits="userSpaceOnUse" x1="51.6673" y1="75.1608" x2="143.9221" y2="17.7578">
			<stop  offset="0" style="stop-color:#816638"/>
			<stop  offset="1" style="stop-color:#CDAF4C"/>
		</linearGradient>
		<path class="st0" d="M95.3,50.6c0,0,15.2-10.4,22.7-12.3c0.1,0.1-4.7-4-8.1-3.9C109.8,34.7,98.4,39.6,95.3,50.6z"/>
		<linearGradient id="SVGID_2_" gradientUnits="userSpaceOnUse" x1="56.1989" y1="82.4438" x2="148.4537" y2="25.0408">
			<stop  offset="0" style="stop-color:#816638"/>
			<stop  offset="1" style="stop-color:#CDAF4C"/>
		</linearGradient>
		<path class="st1" d="M129.7,41.9c0,0-23.5,6.2-39.7,19.1c-0.1,0.1-0.2,0-0.2-0.2c1.5-2.2,7.6-10.1,16.8-14.8
			c0,0,14.9-7.9,17.8-7.4C130.2,39.6,129.7,41.9,129.7,41.9z"/>
		<linearGradient id="SVGID_3_" gradientUnits="userSpaceOnUse" x1="59.5199" y1="87.7811" x2="151.7747" y2="30.3781">
			<stop  offset="0" style="stop-color:#816638"/>
			<stop  offset="1" style="stop-color:#CDAF4C"/>
		</linearGradient>
		<path class="st2" d="M141.4,44c0,0.5-29,0.6-63.7,29.9c0.1,0.1,9.4-11.6,23.9-19.4c0.1,0,10.2-5,10.2-5s14.7-6.4,23.4-7.3
			C135.6,42.1,141.4,42.1,141.4,44z"/>
		<linearGradient id="SVGID_4_" gradientUnits="userSpaceOnUse" x1="62.6238" y1="92.7695" x2="154.8786" y2="35.3665">
			<stop  offset="0" style="stop-color:#816638"/>
			<stop  offset="1" style="stop-color:#CDAF4C"/>
		</linearGradient>
		<path class="st3" d="M150.1,48.4c0,0-39.8,1.1-72.4,26.9c0,0.1,25.2-25.2,66.6-29.6C144.4,45.7,148.1,45.2,150.1,48.4z"/>
		<linearGradient id="SVGID_5_" gradientUnits="userSpaceOnUse" x1="78.2085" y1="117.8163" x2="170.4633" y2="60.4134">
			<stop  offset="0" style="stop-color:#816638"/>
			<stop  offset="1" style="stop-color:#CDAF4C"/>
		</linearGradient>
		<path class="st4" d="M163.2,99.3c0,0-7.8,1.9-8.4,2.2c-0.6,0.3-24.8-11.3-41.6-11.9c0,0-33.8-2.4-51.6,4.1c0,0,16.1-7.2,40.3-7.7
			C102,86.1,146.4,85.5,163.2,99.3z"/>
		<linearGradient id="SVGID_6_" gradientUnits="userSpaceOnUse" x1="77.4465" y1="116.5917" x2="169.7013" y2="59.1887">
			<stop  offset="0" style="stop-color:#816638"/>
			<stop  offset="1" style="stop-color:#CDAF4C"/>
		</linearGradient>
		<path class="st5" d="M181.1,86.6c0,0,2.5-1.4,1-7.5c0,0-1.6-9.6,3.9-17.5c0,0.1,1.7-2-2.6-1.7c0,0-19.4,0-25.9,0.8
			c0,0-0.1,0-0.1,0c-0.1,0-0.1,0-0.2,0c-0.1,0-0.2,0-0.4,0c-0.2,0-0.3,0-0.5,0.1c-0.2,0-0.4,0-0.6,0.1c-0.3,0-0.5,0.1-0.8,0.1
			c-0.3,0-0.6,0.1-0.9,0.1c-0.3,0-0.7,0.1-1,0.1c-0.4,0-0.7,0.1-1.1,0.1c-0.4,0-0.8,0.1-1.2,0.2c-0.4,0.1-0.9,0.1-1.3,0.2
			c-0.5,0.1-0.9,0.1-1.4,0.2c-0.5,0.1-1,0.1-1.5,0.2c-0.5,0.1-1.1,0.2-1.6,0.2c-0.6,0.1-1.1,0.2-1.7,0.3c-0.6,0.1-1.2,0.2-1.8,0.3
			c-0.6,0.1-1.2,0.2-1.8,0.3c-0.6,0.1-1.3,0.2-1.9,0.3c-0.7,0.1-1.3,0.2-2,0.3c-0.7,0.1-1.4,0.2-2,0.4c-0.7,0.1-1.4,0.3-2.1,0.4
			c-0.7,0.1-1.4,0.3-2.1,0.4c-0.7,0.1-1.5,0.3-2.2,0.4c-0.7,0.2-1.5,0.3-2.2,0.5c-0.8,0.2-1.5,0.3-2.3,0.5c-0.8,0.2-1.5,0.3-2.3,0.5
			c-0.8,0.2-1.5,0.4-2.3,0.6c-0.8,0.2-1.6,0.4-2.3,0.6c-0.8,0.2-1.6,0.4-2.3,0.6c-0.8,0.2-1.6,0.4-2.4,0.6c-0.8,0.2-1.6,0.4-2.4,0.7
			c-0.8,0.2-1.6,0.5-2.4,0.7c-0.8,0.2-1.6,0.5-2.4,0.7c-0.8,0.3-1.6,0.5-2.4,0.8c-0.8,0.3-1.6,0.5-2.3,0.8c-0.8,0.3-1.5,0.6-2.3,0.8
			c-0.8,0.3-1.5,0.6-2.3,0.9c-0.8,0.3-1.5,0.6-2.3,0.9c-0.7,0.3-1.5,0.6-2.2,1c-0.7,0.3-1.5,0.7-2.2,1c-0.7,0.3-1.4,0.7-2.2,1
			c-0.7,0.3-1.4,0.7-2.1,1.1c-0.3,0.2-0.7,0.3-1,0.5c-0.2,0.1-0.4,0.2-0.6,0.3c-0.1,0.1-0.3,0.2-0.4,0.3c-0.2,0.1-0.4,0.1-0.5,0.1
			c-0.4,0-0.7-0.2-0.9-0.6c-0.1-0.2-0.1-0.5,0-0.8c0-0.2,0.1-0.3,0.2-0.5c0.1-0.1,0.2-0.2,0.4-0.3c0.2-0.1,0.4-0.2,0.5-0.3
			c0.2-0.1,0.4-0.2,0.7-0.3c0.3-0.1,0.6-0.3,0.8-0.4c0.3-0.1,0.7-0.3,1-0.4c0.4-0.2,0.8-0.3,1.1-0.5c0.4-0.2,0.8-0.4,1.3-0.6
			c0.5-0.2,0.9-0.4,1.4-0.6c0.5-0.2,1-0.4,1.5-0.7c0.5-0.2,1.1-0.5,1.6-0.7c0.6-0.2,1.1-0.5,1.7-0.7c0.6-0.3,1.2-0.5,1.8-0.7
			c0.6-0.3,1.2-0.5,1.9-0.8c0.6-0.3,1.3-0.5,1.9-0.8c0.7-0.3,1.3-0.5,2-0.8c0.7-0.3,1.3-0.5,2-0.8c0.7-0.3,1.4-0.5,2-0.8
			c0.7-0.3,1.4-0.5,2.1-0.8c0.7-0.3,1.4-0.5,2.1-0.7c0.7-0.2,1.4-0.5,2.1-0.7c0.7-0.2,1.4-0.5,2.1-0.7c0.7-0.2,1.4-0.4,2-0.7
			c0.7-0.2,1.3-0.4,2-0.6c0.7-0.2,1.3-0.4,2-0.6c0.6-0.2,1.3-0.3,1.9-0.5c0.6-0.2,1.2-0.3,1.8-0.4c0.6-0.1,1.2-0.3,1.8-0.4
			c0.6-0.1,1.1-0.2,1.7-0.3c0.2,0,0.5-0.1,0.7-0.1c0.1,0,0.2,0,0.3,0c0.1,0,0.3-0.1,0.3,0c0.1,0,31.8-8.9,72.8-6.4
			c0,0-3.6,1.3-9.8,9.3c-0.4,0.7-2.7,4.6-3,10.1c-0.1,1.2,0,2.5-0.1,3.7c0,0.9,0,1.9,0,2.8c0,0.4,0,0.8-0.1,1.2
			c-0.1,0.4-0.4,0.7-0.6,1c-0.6,0.9-1.4,1.6-2.4,2.1C183,86.5,182,86.7,181.1,86.6z"/>
		<linearGradient id="SVGID_7_" gradientUnits="userSpaceOnUse" x1="79.8886" y1="120.5164" x2="172.1434" y2="63.1134">
			<stop  offset="0" style="stop-color:#816638"/>
			<stop  offset="1" style="stop-color:#CDAF4C"/>
		</linearGradient>
		<path class="st6" d="M183.6,94.4c0,0-6.7,1.5-8.9,1.8c0,0-25-11.6-38.7-12.4c0,0-30.3-4.6-50.1,1.7c0-0.2-22.3,5.9-23.5,7.5
			c0,0,11-6.8,27.1-10.3c0,0,19.5-5.5,40.1-3.3C129.7,79.4,165.2,81,183.6,94.4z"/>
		<linearGradient id="SVGID_8_" gradientUnits="userSpaceOnUse" x1="65.8487" y1="97.9524" x2="158.1035" y2="40.5494">
			<stop  offset="0" style="stop-color:#816638"/>
			<stop  offset="1" style="stop-color:#CDAF4C"/>
		</linearGradient>
		<path class="st7" d="M154.8,50.3c-7.6-1.8-33.6,4.8-33.6,4.8c-22.1,5.5-42.4,20.6-42.4,20.6c-1.6,1.4,0,1.9,0.2,1.8
			c35.9-19.4,80.3-23.3,80.3-23.3C158.9,52.3,154.8,50.4,154.8,50.3z M86.7,73.2l-0.5,0.3c-0.3,0.2-0.7,0.1-0.9-0.2L85,72.8
			c-0.2-0.3-0.1-0.7,0.2-0.9l0.5-0.3c0.3-0.2,0.7-0.1,0.9,0.2l0.3,0.5C87.1,72.6,87,73,86.7,73.2z M91.8,70.9l-0.5,0.2
			c-0.5,0.2-1,0-1.3-0.5l-0.2-0.5c-0.2-0.5,0-1,0.5-1.3l0.5-0.2c0.5-0.2,1,0,1.3,0.5l0.2,0.5C92.5,70.1,92.3,70.7,91.8,70.9z
			 M97.5,68.3l-0.8,0.4c-0.5,0.2-1,0-1.3-0.5l-0.4-0.8c-0.2-0.5,0-1,0.5-1.3l0.8-0.4c0.5-0.2,1,0,1.3,0.5L98,67
			C98.2,67.5,98,68,97.5,68.3z M103.8,65.8l-1.1,0.5c-0.5,0.2-1,0-1.2-0.5l-0.5-1.1c-0.2-0.5,0-1,0.5-1.2l1.1-0.5
			c0.5-0.2,1,0,1.2,0.5l0.5,1.1C104.5,65.1,104.2,65.6,103.8,65.8z M110.9,63.2l-1.1,0.4c-0.5,0.2-1-0.1-1.2-0.6l-0.4-1.1
			c-0.2-0.5,0.1-1,0.6-1.2l1.1-0.4c0.5-0.2,1,0.1,1.2,0.6l0.4,1.1C111.6,62.4,111.3,63,110.9,63.2z M117.8,60.7l-1.1,0.4
			c-0.5,0.2-1-0.1-1.2-0.6l-0.4-1.1c-0.2-0.5,0.1-1,0.6-1.2l1.1-0.4c0.5-0.2,1,0.1,1.2,0.6l0.4,1.1C118.5,60,118.3,60.5,117.8,60.7z
			 M125,58.8l-1.1,0.3c-0.5,0.1-1-0.2-1.1-0.7l-0.3-1.1c-0.1-0.5,0.2-1,0.7-1.1l1.1-0.3c0.5-0.1,1,0.2,1.1,0.7l0.3,1.1
			C125.8,58.1,125.5,58.6,125,58.8z M132.4,56.9l-1.1,0.3c-0.5,0.1-1-0.2-1.1-0.7l-0.3-1.1c-0.1-0.5,0.2-1,0.7-1.1l1.1-0.3
			c0.5-0.1,1,0.2,1.1,0.7l0.3,1.1C133.2,56.3,132.9,56.8,132.4,56.9z M139.4,55.6l-1.1,0.2c-0.5,0.1-1-0.2-1.1-0.8l-0.2-1.1
			c-0.1-0.5,0.2-1,0.8-1.1l1.1-0.2c0.5-0.1,1,0.2,1.1,0.8l0.2,1.1C140.3,55,139.9,55.5,139.4,55.6z M147.3,54.4l-1.2,0.2
			c-0.5,0.1-1-0.3-1.1-0.8l-0.2-1.2c-0.1-0.5,0.3-1,0.8-1.1l1.2-0.2c0.5-0.1,1,0.3,1.1,0.8l0.2,1.2
			C148.1,53.8,147.8,54.3,147.3,54.4z"/>
	</g>
	<text transform="matrix(1 0 0 1 3.4927 146.8213)" class="st8 st9 st10 st11">LAKHANI IMPEX</text>
	<text transform="matrix(1 0 0 1 18.2842 169.7881)" class="st12 st13 st14">THE IMPORTERS &amp; EXPORTERS</text>
	<g>
		<linearGradient id="SVGID_9_" gradientUnits="userSpaceOnUse" x1="21.68" y1="155.0216" x2="235.6538" y2="155.0216">
			<stop  offset="0" style="stop-color:#816638"/>
			<stop  offset="1" style="stop-color:#CDAF4C"/>
		</linearGradient>
		<path class="st15" d="M21.7,155c8.9-0.2,17.8-0.3,26.7-0.5l26.7-0.3c17.8-0.2,35.7-0.1,53.5-0.2c17.8,0.1,35.7,0.1,53.5,0.2
			l26.7,0.3c8.9,0.2,17.8,0.3,26.7,0.5c-8.9,0.2-17.8,0.3-26.7,0.5l-26.7,0.3c-17.8,0.2-35.7,0.2-53.5,0.2
			c-17.8-0.1-35.7-0.1-53.5-0.2l-26.7-0.3C39.5,155.3,30.6,155.2,21.7,155z"/>
	</g>
	<g>
		<linearGradient id="SVGID_10_" gradientUnits="userSpaceOnUse" x1="21.68" y1="119.584" x2="235.6538" y2="119.584">
			<stop  offset="0" style="stop-color:#816638"/>
			<stop  offset="1" style="stop-color:#CDAF4C"/>
		</linearGradient>
		<path class="st16" d="M21.7,119.6c8.9-0.2,17.8-0.3,26.7-0.5l26.7-0.3c17.8-0.2,35.7-0.1,53.5-0.2c17.8,0.1,35.7,0.1,53.5,0.2
			l26.7,0.3c8.9,0.2,17.8,0.3,26.7,0.5c-8.9,0.2-17.8,0.3-26.7,0.5l-26.7,0.3c-17.8,0.2-35.7,0.2-53.5,0.2
			c-17.8-0.1-35.7-0.1-53.5-0.2l-26.7-0.3C39.5,119.9,30.6,119.8,21.7,119.6z"/>
	</g>
</g>
</svg>
