<svg xmlns="http://www.w3.org/2000/svg" viewBox="0 0 384.12 517.99"><defs><style>.cls-1{fill:#3397d3;fill-rule:evenodd;}</style></defs><g id="Layer_2" data-name="Layer 2"><g id="New_Layer" data-name="New Layer"><path class="cls-1" d="M181.81,1.09c-12.3,2.9-23.4,13-27.7,25.1l-1.8,5.3-67.4.5c-63.2.5-67.5.6-71.1,2.4-4.9,2.4-11,9.5-12.5,14.4-1.8,5.8-1.7,440.7,0,446.6,1.6,5.5,9.9,13.8,15.4,15.4,3.2.9,43.9,7.2,175.6,7.2,191.5,0,177-5.4,184.7-13.1s7.1,12.3,7.1-232.7c0-163.7-.3-220.5-1.2-223.3-1.5-5.1-6.9-11.4-12.2-14.2l-4.1-2.2-67.7-.3-67.8-.3-.6-2.7c-1.3-5.4-6.9-14.4-11.5-18.6A41.68,41.68,0,0,0,181.81,1.09Zm22.5,18.2c6.9,4.1,11.8,12.4,11.8,20.4a7.58,7.58,0,0,0,2.5,5.8L221,48h51.1V96h-160V48H137c29.2,0,29.3,0,30.5-9.2,1.4-10.4,7.1-18.2,15.7-21.5C188.61,15.29,199.11,16.19,204.31,19.29ZM96.11,77.49v29.6l2.5,2.4L101,112h182.2l2.4-2.5,2.5-2.4V48h36.5c38.4,0,41.3.3,42.9,4.5.3.9.6,100,.6,220.1v218.5l-2.5,2.4-2.4,2.5H21l-2.4-2.5-2.5-2.4V52.89l2.5-2.4L21,48h75.1Z"/><path class="cls-1" d="M50.61,82.49l-2.5,2.4v374.2l2.5,2.4L53,464h278.2l2.4-2.5,2.5-2.4V84.89l-2.5-2.4c-2.3-2.4-3.1-2.5-13.5-2.5s-11.2.1-13.5,2.5a7.8,7.8,0,0,0-2.5,5.5c0,5.1,3.8,8,10.5,8h5.5V448h-256V96h5.5c6.7,0,10.5-2.9,10.5-8a7.8,7.8,0,0,0-2.5-5.5c-2.3-2.4-3.1-2.5-13.5-2.5S52.91,80.09,50.61,82.49Z"/><path class="cls-1" d="M112.11,145.29c-4.9,1.6-13.3,10.2-14.8,15.3-2.8,9.4-.8,16.9,6.3,23.9,5.1,5.2,10.2,7.5,16.5,7.5s11.4-2.3,16.5-7.5c10.2-10.1,10.2-22.9,0-33C129.61,144.39,121.41,142.39,112.11,145.29Zm13.5,17.2a7.9,7.9,0,0,1-5.5,13.5,8,8,0,0,1,0-16A7.8,7.8,0,0,1,125.61,162.49Z"/><path class="cls-1" d="M162.61,162.49a7.3,7.3,0,0,0,0,11L165,176h118.2l2.4-2.5a7.3,7.3,0,0,0,0-11l-2.4-2.5H165Z"/><path class="cls-1" d="M112.11,209.29c-4.9,1.6-13.3,10.2-14.8,15.3-2.8,9.4-.8,16.9,6.3,23.9,10.1,10.2,22.9,10.2,33,0s10.2-22.9,0-33C129.61,208.39,121.41,206.39,112.11,209.29Zm13.5,17.2a7.9,7.9,0,0,1-5.5,13.5,8,8,0,0,1,0-16A7.8,7.8,0,0,1,125.61,226.49Z"/><path class="cls-1" d="M162.61,226.49a7.3,7.3,0,0,0,0,11L165,240h48.4c47.5,0,48.5,0,51.1-2.1,2-1.6,2.6-2.9,2.6-5.9s-.6-4.3-2.6-5.9c-2.6-2.1-3.6-2.1-51.1-2.1H165Z"/><path class="cls-1" d="M188.51,285.19c-2.8,1.3-4.4,4.9-4.4,9.6,0,3.5-.2,3.8-4.8,5.4a30.57,30.57,0,0,0-15.9,14.2c-3.5,6.8-3.8,17.1-.6,23.2,4.1,7.7,10.7,12.4,25.7,18.4,11.5,4.5,19.3,8.7,21,11.2.9,1.2,1.6,4.1,1.6,6.4,0,8.6-8.6,14.1-20.5,13.2-10.5-.9-15.9-5.4-17.6-14.4-.5-2.9-1.7-5.6-3-6.7-5.2-4.3-12.9-.1-12.9,7,0,12.6,8.4,23.1,22.3,28.1,4.6,1.6,4.7,1.8,4.7,5.8,0,5.9,3,9.4,8,9.4s8-3.5,8-9.5c0-4.1.1-4.3,3.8-4.9,5.8-.9,13.9-6.2,17.5-11.2,4.4-6.2,5.5-9.8,5.6-17.4.1-15-7-21.6-35.4-33.1-10.4-4.3-14.9-8.3-14.8-13.4.2-7.5,7.3-12.8,17.2-12.8,9.3,0,16.1,5.1,16.1,12a7.58,7.58,0,0,0,2.5,5.8c5.3,5.4,13.5,1.5,13.5-6.3,0-11.8-8.9-22.7-21.5-26.2-4.5-1.3-4.5-1.3-4.5-5.7C200.11,286,194.61,282.19,188.51,285.19Z"/></g></g></svg>