<svg width="65" height="76" viewBox="0 0 65 76" fill="none" xmlns="http://www.w3.org/2000/svg">
<path d="M64.8939 44.5707C64.8919 44.3728 64.8381 44.1789 64.7379 44.0082L61.5673 38.6668C61.4093 38.4023 61.1856 38.1832 60.9179 38.0308C60.6502 37.8784 60.3476 37.7978 60.0396 37.7969H34.3569C34.0492 37.7978 33.747 37.8781 33.4795 38.0301C33.212 38.1821 32.9884 38.4007 32.8302 38.6646L29.6462 44.0065C29.6434 44.0117 29.641 44.0175 29.6376 44.0229C29.6318 44.0332 29.6255 44.0436 29.6197 44.054H23.753C23.4577 44.054 23.1745 44.1713 22.9658 44.3801C22.757 44.5889 22.6397 44.872 22.6397 45.1673C22.6397 45.7826 23.1377 46.2806 23.753 46.2806H29.4892V48.5622H23.753C23.4577 48.5622 23.1745 48.6795 22.9658 48.8883C22.757 49.0971 22.6397 49.3802 22.6397 49.6755C22.6397 50.2908 23.1377 50.7888 23.753 50.7888H29.4892V60.029H23.753C23.4577 60.029 23.1745 60.1463 22.9658 60.3551C22.757 60.5639 22.6397 60.847 22.6397 61.1423C22.6397 61.7576 23.1377 62.2556 23.753 62.2556H29.4892V64.5372H23.753C23.4577 64.5372 23.1745 64.6545 22.9658 64.8633C22.757 65.0721 22.6397 65.3552 22.6397 65.6505C22.6397 66.2658 23.1377 66.7638 23.753 66.7638H29.4892V73.716H5.36869C3.63612 73.716 2.22656 72.3064 2.22656 70.5739V5.36869C2.22656 3.63612 3.63612 2.22656 5.36869 2.22656H47.4264L55.7882 10.5872V33.8663C55.7882 34.1616 55.9054 34.4447 56.1142 34.6535C56.323 34.8623 56.6062 34.9796 56.9014 34.9796C57.1967 34.9796 57.4799 34.8623 57.6886 34.6535C57.8974 34.4447 58.0147 34.1616 58.0147 33.8663V10.1264C58.0147 9.83072 57.8975 9.54765 57.6889 9.33895L48.6741 0.32582C48.5708 0.222478 48.4481 0.140513 48.313 0.0846075C48.178 0.0287019 48.0333 -4.80848e-05 47.8871 6.03681e-08H5.36869C2.4087 6.03681e-08 0 2.4087 0 5.36869V70.5733C0 73.534 2.4087 75.942 5.36869 75.942H31.1753C31.3337 75.9785 31.4971 76 31.6653 76H62.7178C63.9175 76 64.8939 75.0236 64.8939 73.8239V44.5707ZM61.8254 43.4632H52.2512L51.6505 40.0236H59.7832L61.8254 43.4632ZM44.6559 45.6898H50.2026V53.5766L48.0943 52.0058C47.9022 51.8627 47.6689 51.7853 47.4293 51.7853C47.1896 51.7853 46.9564 51.8627 46.7642 52.0058L44.6559 53.5766V45.6898ZM49.3902 40.0236L49.9909 43.4632H44.8449L45.3865 40.0236H49.3902ZM31.7157 73.7734V44.8832L34.6121 40.0236H43.1327L42.5906 43.4632H36.1637C35.8684 43.4632 35.5853 43.5805 35.3765 43.7893C35.1677 43.9981 35.0504 44.2813 35.0504 44.5765C35.0504 44.8718 35.1677 45.155 35.3765 45.3637C35.5853 45.5725 35.8684 45.6898 36.1637 45.6898H42.4292V55.7939C42.4292 56.0004 42.4865 56.2028 42.5949 56.3786C42.7033 56.5543 42.8584 56.6965 43.0429 56.7891C43.2275 56.8818 43.4341 56.9213 43.6398 56.9032C43.8455 56.8852 44.0421 56.8103 44.2077 56.6869L47.4292 54.287L50.6509 56.6869C50.8431 56.8299 51.0763 56.9072 51.3159 56.9072C51.6111 56.9071 51.8942 56.7898 52.103 56.581C52.3117 56.3723 52.429 56.0892 52.4292 55.7939V45.6898H62.6673V73.7734H31.7157Z" fill="white"/>
<path d="M20.5029 6.57717C20.2942 6.36847 20.011 6.25122 19.7158 6.25122C19.4206 6.25122 19.1375 6.36847 18.9287 6.57717L16.9207 8.58509C15.7866 7.59872 14.3067 6.99918 12.6884 6.99918C9.12713 6.99918 6.22918 9.89728 6.22918 13.4586C6.22918 17.0199 9.12713 19.918 12.6884 19.918C16.2505 19.918 19.1478 17.0205 19.1478 13.4586C19.1478 12.321 18.851 11.2518 18.3326 10.3223L20.5035 8.15195C20.7122 7.94295 20.8293 7.65968 20.8292 7.36436C20.8291 7.06905 20.7117 6.78601 20.5029 6.57717ZM16.9213 13.4586C16.9213 15.7925 15.0229 17.6914 12.6884 17.6914C10.3547 17.6914 8.45574 15.7925 8.45574 13.4586C8.45574 11.1247 10.3547 9.22574 12.6884 9.22574C13.6928 9.22574 14.6152 9.57769 15.3418 10.1639L12.9043 12.6018L12.5853 12.2834C12.4819 12.18 12.3592 12.098 12.2242 12.042C12.0891 11.9861 11.9444 11.9573 11.7982 11.9573C11.652 11.9573 11.5072 11.9861 11.3722 12.042C11.2371 12.098 11.1144 12.18 11.0111 12.2834C10.9077 12.3868 10.8257 12.5095 10.7697 12.6445C10.7138 12.7796 10.685 12.9243 10.685 13.0705C10.685 13.2167 10.7138 13.3614 10.7697 13.4965C10.8257 13.6315 10.9077 13.7542 11.0111 13.8576L12.1168 14.9634C12.2201 15.0671 12.3428 15.1493 12.4779 15.2053C12.6131 15.2613 12.758 15.29 12.9043 15.2899C13.0504 15.2899 13.1952 15.2611 13.3302 15.2051C13.4652 15.149 13.5878 15.0669 13.691 14.9633L16.6603 11.9945C16.8335 12.4633 16.9218 12.9589 16.9213 13.4586ZM48.5744 10.0908H23.7524C23.4571 10.0908 23.1739 10.2081 22.9652 10.4169C22.7564 10.6257 22.6391 10.9089 22.6391 11.2041C22.6391 11.4994 22.7564 11.7825 22.9652 11.9913C23.1739 12.2001 23.4571 12.3174 23.7524 12.3174H48.5744C49.1897 12.3174 49.6877 11.8194 49.6877 11.2041C49.6877 10.9089 49.5704 10.6257 49.3616 10.4169C49.1528 10.2081 48.8697 10.0908 48.5744 10.0908ZM23.7524 16.8257H33.5596C34.1748 16.8257 34.6729 16.3276 34.6729 15.7125C34.6729 15.4172 34.5556 15.134 34.3468 14.9253C34.1381 14.7165 33.8549 14.5992 33.5596 14.5992H23.7524C23.4571 14.5992 23.1739 14.7165 22.9652 14.9253C22.7564 15.134 22.6391 15.4172 22.6391 15.7125C22.6391 16.0077 22.7564 16.2909 22.9652 16.4997C23.1739 16.7085 23.4571 16.8257 23.7524 16.8257ZM20.5029 23.2276C20.3996 23.1242 20.2769 23.0421 20.1418 22.9862C20.0068 22.9302 19.862 22.9014 19.7158 22.9014C19.5697 22.9014 19.4249 22.9302 19.2898 22.9862C19.1548 23.0421 19.0321 23.1242 18.9287 23.2276L16.9207 25.2356C15.7866 24.2487 14.3067 23.6497 12.6884 23.6497C9.12713 23.6497 6.22918 26.5472 6.22918 30.1091C6.22918 33.671 9.12713 36.5684 12.6884 36.5684C16.2505 36.5684 19.1478 33.6709 19.1478 30.1091C19.1478 28.9715 18.851 27.9023 18.3326 26.9726L20.5035 24.8025C20.7122 24.5935 20.8293 24.3102 20.8292 24.0149C20.8291 23.7196 20.7117 23.4364 20.5029 23.2276ZM16.9213 30.1091C16.9213 32.4429 15.0229 34.3418 12.6884 34.3418C10.3547 34.3418 8.45574 32.443 8.45574 30.1091C8.45574 27.7752 10.3547 25.8763 12.6884 25.8763C13.6928 25.8763 14.6152 26.2282 15.3418 26.8144L12.9043 29.252L12.5853 28.9338C12.4819 28.8304 12.3592 28.7484 12.2242 28.6924C12.0891 28.6365 11.9444 28.6077 11.7982 28.6077C11.652 28.6077 11.5072 28.6365 11.3722 28.6924C11.2371 28.7484 11.1144 28.8304 11.0111 28.9338C10.9077 29.0371 10.8257 29.1598 10.7697 29.2949C10.7138 29.4299 10.685 29.5747 10.685 29.7209C10.685 29.8671 10.7138 30.0118 10.7697 30.1469C10.8257 30.2819 10.9077 30.4046 11.0111 30.508L12.1168 31.6138C12.2201 31.7175 12.3428 31.7996 12.4779 31.8557C12.6131 31.9117 12.758 31.9404 12.9043 31.9402C13.0504 31.9403 13.1952 31.9115 13.3302 31.8555C13.4652 31.7994 13.5878 31.7173 13.691 31.6137L16.6603 28.6449C16.8334 29.1137 16.9218 29.6094 16.9213 30.1091ZM49.6877 27.8547C49.6877 27.5594 49.5704 27.2762 49.3616 27.0674C49.1528 26.8587 48.8697 26.7414 48.5744 26.7414H23.7524C23.4571 26.7414 23.1739 26.8587 22.9652 27.0674C22.7564 27.2762 22.6391 27.5594 22.6391 27.8547C22.6391 28.1499 22.7564 28.4331 22.9652 28.6419C23.1739 28.8506 23.4571 28.9679 23.7524 28.9679H48.5744C49.1897 28.9679 49.6877 28.4699 49.6877 27.8547ZM23.7524 31.2496C23.4571 31.2496 23.1739 31.3669 22.9652 31.5756C22.7564 31.7844 22.6391 32.0676 22.6391 32.3628C22.6391 32.6581 22.7564 32.9413 22.9652 33.1501C23.1739 33.3588 23.4571 33.4761 23.7524 33.4761H33.5596C34.1748 33.4761 34.6729 32.9781 34.6729 32.3628C34.6729 32.0676 34.5556 31.7844 34.3468 31.5756C34.1381 31.3669 33.8549 31.2496 33.5596 31.2496H23.7524ZM12.6884 40.9618C9.12713 40.9618 6.22918 43.8599 6.22918 47.4212C6.22918 50.9831 9.12713 53.8805 12.6884 53.8805C16.2505 53.8805 19.1478 50.983 19.1478 47.4212C19.1478 43.8599 16.2503 40.9618 12.6884 40.9618ZM12.6884 51.6539C10.3547 51.6539 8.45574 49.755 8.45574 47.4212C8.45574 45.0875 10.3547 43.1884 12.6884 43.1884C15.0229 43.1884 16.9213 45.0874 16.9213 47.4212C16.9213 49.7551 15.0223 51.6539 12.6884 51.6539ZM12.6884 56.9368C9.12713 56.9368 6.22918 59.8349 6.22918 63.3968C6.22918 66.9581 9.12713 69.8561 12.6884 69.8561C16.2505 69.8561 19.1478 66.9581 19.1478 63.3968C19.1478 59.8349 16.2503 56.9368 12.6884 56.9368ZM12.6884 67.6289C10.3547 67.6289 8.45574 65.7306 8.45574 63.3962C8.45574 61.0623 10.3547 59.1634 12.6884 59.1634C15.0229 59.1634 16.9213 61.0623 16.9213 63.3962C16.9213 65.7306 15.0223 67.6289 12.6884 67.6289Z" fill="white"/>
</svg>
