<svg width="80" height="76" viewBox="0 0 80 76" fill="none" xmlns="http://www.w3.org/2000/svg">
<path d="M79.4134 38.6189L72.8312 27.7993C72.611 27.4966 72.3165 27.2591 71.9436 27.1722L54.0328 23.3313C54.7195 21.6932 55.1378 19.9207 55.1378 18.0165V10.1244C55.1378 8.73326 54.0919 7.57421 52.702 7.42899C50.8979 7.23898 46.1473 6.18308 41.0376 0.457038C40.5147 -0.152346 39.4839 -0.152346 38.9624 0.457038C33.8527 6.18308 29.1021 7.24034 27.298 7.42899C26.6257 7.50122 26.0045 7.81682 25.5545 8.31473C25.1045 8.81264 24.8579 9.45745 24.8622 10.1244V18.0165C24.8622 19.9207 25.2819 21.6932 25.9672 23.3313L8.05643 27.1722C7.68486 27.2577 7.38899 27.498 7.1688 27.7993L0.586597 38.6189C-0.741404 40.6845 0.290721 43.669 2.62332 44.5037L6.97201 46.1826V60.5757C6.97201 62.2627 8.00138 63.7516 9.59636 64.3678L39.4991 75.9067C39.8211 76.0311 40.1789 76.0311 40.5009 75.9067L70.405 64.3678C71.1801 64.0718 71.8458 63.5509 72.3141 62.8738C72.7825 62.1967 73.0314 61.3953 73.028 60.5757V46.1826L77.3767 44.5037C79.7093 43.669 80.7414 40.6845 79.4134 38.6189ZM40 3.35331C45.1565 8.62876 49.9345 9.86789 52.3855 10.1244V18.0165C52.3855 26.2045 42.5555 32.0283 40 33.4045C37.4445 32.0283 27.6145 26.2045 27.6145 18.0165L27.587 10.1285C30.0641 9.86924 34.8435 8.62876 40 3.35331ZM27.2705 25.83C31.2889 32.2075 38.9637 35.9493 39.4 36.1583C39.5869 36.2479 39.7921 36.2945 40 36.2945C40.2079 36.2945 40.4131 36.2479 40.6 36.1583C41.0363 35.9493 48.7125 32.2075 52.7282 25.83L66.9109 28.8701L40 39.2554L13.0891 28.8701L27.2705 25.83ZM3.62655 41.9766C2.85039 41.7011 2.50222 40.7036 2.9481 40.0141L8.93167 30.1798L37.9825 41.3917L31.7623 51.6195C31.5951 51.8952 31.3342 52.1034 31.026 52.207C30.7178 52.3106 30.3823 52.303 30.0792 52.1855L3.62655 41.9766ZM38.6238 72.6548L10.5996 61.8393C10.3412 61.7407 10.1192 61.5672 9.96297 61.3416C9.80671 61.116 9.7235 60.8489 9.72434 60.5757V47.2453L29.076 54.7126C30.9201 55.4346 33.0779 54.7397 34.1196 53.0161L38.6238 45.6126V72.6548ZM70.2757 60.5757C70.2757 61.1376 69.9316 61.6343 69.4018 61.8393L41.3762 72.6548V45.6126L45.8804 53.0161C46.3816 53.8417 47.1634 54.4653 48.0869 54.7759C49.0104 55.0866 50.0157 55.0641 50.924 54.7126L70.2757 47.2453V60.5757ZM76.3748 41.9766L49.9222 52.1855C49.6193 52.3027 49.2841 52.3101 48.9762 52.2065C48.6682 52.1028 48.4076 51.8949 48.2405 51.6195L42.0175 41.3917L71.0697 30.1812L77.0533 40.0141C77.4992 40.7036 77.1496 41.7011 76.3748 41.9766ZM33.7797 20.4459C33.5208 20.1922 33.3746 19.8473 33.3735 19.4873C33.3723 19.1273 33.5162 18.7816 33.7735 18.5262C34.0308 18.2708 34.3805 18.1267 34.7455 18.1255C35.1106 18.1244 35.4612 18.2663 35.7201 18.5201L38.244 20.9929L43.4845 14.1119C43.5929 13.9693 43.7287 13.8492 43.8842 13.7583C44.0397 13.6675 44.2119 13.6078 44.3908 13.5826C44.5697 13.5574 44.7519 13.5672 44.9269 13.6114C45.102 13.6557 45.2665 13.7335 45.4111 13.8404C45.5557 13.9474 45.6775 14.0813 45.7695 14.2347C45.8616 14.3881 45.9222 14.5578 45.9477 14.7342C45.9733 14.9107 45.9633 15.0904 45.9185 15.263C45.8736 15.4357 45.7948 15.5979 45.6863 15.7405L39.4936 23.8702C39.0215 24.5203 37.988 24.5935 37.4238 24.0167L33.7797 20.4473V20.4459Z" fill="white"/>
</svg>
