<svg width="76" height="76" viewBox="0 0 76 76" fill="none" xmlns="http://www.w3.org/2000/svg">
<g clip-path="url(#clip0_24_45)">
<path d="M74.3108 30.2694C74.4797 30.3715 74.6726 30.4268 74.87 30.4298C75.0673 30.4328 75.2618 30.3832 75.4337 30.2863C75.6056 30.1893 75.7486 30.0484 75.8481 29.878C75.9476 29.7075 76 29.5137 76 29.3164V23.3789C76.0002 23.1872 75.9508 22.9987 75.8567 22.8317C75.7625 22.6648 75.6268 22.525 75.4627 22.4259L38.5759 0.160303C38.4021 0.0554277 38.203 0 38 0C37.797 0 37.5979 0.0554277 37.4241 0.160303L0.537344 22.4259C0.37342 22.5252 0.237853 22.665 0.143729 22.832C0.049605 22.9989 0.000102557 23.1873 2.59864e-08 23.3789V29.3164C-4.26065e-05 29.5137 0.0523717 29.7075 0.151874 29.878C0.251377 30.0484 0.394392 30.1893 0.566269 30.2863C0.738147 30.3832 0.932711 30.4328 1.13003 30.4298C1.32735 30.4268 1.52034 30.3715 1.68922 30.2694L2.74609 29.6311V74.8867C2.74609 75.182 2.86339 75.4651 3.07217 75.6739C3.28095 75.8827 3.56411 76 3.85938 76H74.8867C75.182 76 75.4651 75.8827 75.6739 75.6739C75.8827 75.4651 76 75.182 76 74.8867V60.043C76 59.7477 75.8827 59.4645 75.6739 59.2557C75.4651 59.047 75.182 58.9297 74.8867 58.9297H73.2539V29.6311L74.3108 30.2694ZM2.22656 24.0068L38 2.41358L73.7734 24.0068V27.3437L38.5759 6.0978C38.4021 5.99293 38.203 5.9375 38 5.9375C37.797 5.9375 37.5979 5.99293 37.4241 6.0978L2.22656 27.3437V24.0068ZM35.1797 60.043V73.7734H16.8477V37.4062H59.1523V44.0859H45.9414C45.6461 44.0859 45.363 44.2032 45.1542 44.412C44.9454 44.6208 44.8281 44.9039 44.8281 45.1992V58.9297H36.293C35.9977 58.9297 35.7145 59.047 35.5058 59.2557C35.297 59.4645 35.1797 59.7477 35.1797 60.043ZM13.8789 35.1797V32.9531H62.1211V35.1797H13.8789ZM53.7344 46.3125H57.4453V48.5391H53.7344V46.3125ZM44.0859 61.1562H47.7969V63.3828H44.0859V61.1562ZM37.4062 61.1562H41.8594V64.4961C41.8594 64.7913 41.9767 65.0745 42.1854 65.2833C42.3942 65.4921 42.6774 65.6094 42.9727 65.6094H48.9102C49.2054 65.6094 49.4886 65.4921 49.6974 65.2833C49.9061 65.0745 50.0234 64.7913 50.0234 64.4961V61.1562H54.4766V73.7734H37.4062V61.1562ZM47.0547 58.9297V46.3125H51.5078V49.6523C51.5078 49.9476 51.6251 50.2308 51.8339 50.4395C52.0427 50.6483 52.3258 50.7656 52.6211 50.7656H58.5586C58.8539 50.7656 59.137 50.6483 59.3458 50.4395C59.5546 50.2308 59.6719 49.9476 59.6719 49.6523V46.3125H64.125V58.9297H47.0547ZM63.3828 61.1562H67.0938V63.3828H63.3828V61.1562ZM73.7734 73.7734H56.7031V61.1562H61.1562V64.4961C61.1562 64.7913 61.2735 65.0745 61.4823 65.2833C61.6911 65.4921 61.9743 65.6094 62.2695 65.6094H68.207C68.5023 65.6094 68.7855 65.4921 68.9942 65.2833C69.203 65.0745 69.3203 64.7913 69.3203 64.4961V61.1562H73.7734V73.7734ZM71.0273 58.9297H66.3516V45.1992C66.3516 44.9039 66.2343 44.6208 66.0255 44.412C65.8167 44.2032 65.5335 44.0859 65.2383 44.0859H61.3789V37.4062H63.2344C63.5296 37.4062 63.8128 37.2889 64.0216 37.0802C64.2304 36.8714 64.3477 36.5882 64.3477 36.293V31.8398C64.3477 31.5446 64.2304 31.2614 64.0216 31.0526C63.8128 30.8438 63.5296 30.7266 63.2344 30.7266H12.7656C12.4704 30.7266 12.1872 30.8438 11.9784 31.0526C11.7696 31.2614 11.6523 31.5446 11.6523 31.8398V36.293C11.6523 36.5882 11.7696 36.8714 11.9784 37.0802C12.1872 37.2889 12.4704 37.4062 12.7656 37.4062H14.6211V73.7734H4.97266V28.2877L38 8.35108L71.0273 28.2877V58.9297Z" fill="white"/>
<path d="M48.0195 40.7461C48.0195 40.4508 47.9022 40.1677 47.6935 39.9589C47.4847 39.7501 47.2015 39.6328 46.9062 39.6328H29.0938C28.7985 39.6328 28.5153 39.7501 28.3065 39.9589C28.0978 40.1677 27.9805 40.4508 27.9805 40.7461C27.9805 41.0414 28.0978 41.3245 28.3065 41.5333C28.5153 41.7421 28.7985 41.8594 29.0938 41.8594H46.9062C47.2015 41.8594 47.4847 41.7421 47.6935 41.5333C47.9022 41.3245 48.0195 41.0414 48.0195 40.7461Z" fill="white"/>
</g>
<defs>
<clipPath id="clip0_24_45">
<rect width="76" height="76" fill="white"/>
</clipPath>
</defs>
</svg>
